<mxfile host="app.diagrams.net" modified="2023-06-19T10:14:54.551Z" agent="Mozilla/5.0 (Windows NT 10.0; Win64; x64) AppleWebKit/537.36 (KHTML, like Gecko) Chrome/114.0.0.0 Safari/537.36" etag="4PEpastpwgVGlwk3_0oJ" version="21.3.8" type="device">
  <diagram name="Page-1" id="RMOanlX5MsBnPraVx4_K">
    <mxGraphModel dx="1674" dy="768" grid="1" gridSize="10" guides="1" tooltips="1" connect="1" arrows="1" fold="1" page="1" pageScale="1" pageWidth="827" pageHeight="1169" math="0" shadow="0">
      <root>
        <mxCell id="0" />
        <mxCell id="1" parent="0" />
        <mxCell id="iztxD9YRHtF3vGfMm_Q4-3" style="edgeStyle=orthogonalEdgeStyle;rounded=0;orthogonalLoop=1;jettySize=auto;html=1;" edge="1" parent="1" source="iztxD9YRHtF3vGfMm_Q4-1" target="iztxD9YRHtF3vGfMm_Q4-2">
          <mxGeometry relative="1" as="geometry" />
        </mxCell>
        <mxCell id="iztxD9YRHtF3vGfMm_Q4-5" style="edgeStyle=orthogonalEdgeStyle;rounded=0;orthogonalLoop=1;jettySize=auto;html=1;" edge="1" parent="1" source="iztxD9YRHtF3vGfMm_Q4-1" target="iztxD9YRHtF3vGfMm_Q4-4">
          <mxGeometry relative="1" as="geometry" />
        </mxCell>
        <mxCell id="iztxD9YRHtF3vGfMm_Q4-9" style="edgeStyle=orthogonalEdgeStyle;rounded=0;orthogonalLoop=1;jettySize=auto;html=1;" edge="1" parent="1" source="iztxD9YRHtF3vGfMm_Q4-1" target="iztxD9YRHtF3vGfMm_Q4-8">
          <mxGeometry relative="1" as="geometry" />
        </mxCell>
        <mxCell id="iztxD9YRHtF3vGfMm_Q4-10" style="edgeStyle=orthogonalEdgeStyle;rounded=0;orthogonalLoop=1;jettySize=auto;html=1;entryX=0.5;entryY=0;entryDx=0;entryDy=0;" edge="1" parent="1" source="iztxD9YRHtF3vGfMm_Q4-1" target="iztxD9YRHtF3vGfMm_Q4-6">
          <mxGeometry relative="1" as="geometry" />
        </mxCell>
        <mxCell id="iztxD9YRHtF3vGfMm_Q4-1" value="App" style="rounded=0;whiteSpace=wrap;html=1;" vertex="1" parent="1">
          <mxGeometry x="354" y="50" width="120" height="60" as="geometry" />
        </mxCell>
        <mxCell id="iztxD9YRHtF3vGfMm_Q4-17" style="edgeStyle=orthogonalEdgeStyle;rounded=0;orthogonalLoop=1;jettySize=auto;html=1;" edge="1" parent="1" source="iztxD9YRHtF3vGfMm_Q4-2" target="iztxD9YRHtF3vGfMm_Q4-16">
          <mxGeometry relative="1" as="geometry" />
        </mxCell>
        <mxCell id="iztxD9YRHtF3vGfMm_Q4-2" value="Homepage" style="rounded=0;whiteSpace=wrap;html=1;" vertex="1" parent="1">
          <mxGeometry x="40" y="350" width="120" height="60" as="geometry" />
        </mxCell>
        <mxCell id="iztxD9YRHtF3vGfMm_Q4-12" style="edgeStyle=orthogonalEdgeStyle;rounded=0;orthogonalLoop=1;jettySize=auto;html=1;" edge="1" parent="1" source="iztxD9YRHtF3vGfMm_Q4-4" target="iztxD9YRHtF3vGfMm_Q4-11">
          <mxGeometry relative="1" as="geometry" />
        </mxCell>
        <mxCell id="iztxD9YRHtF3vGfMm_Q4-4" value="Multistep form" style="rounded=0;whiteSpace=wrap;html=1;" vertex="1" parent="1">
          <mxGeometry x="234" y="350" width="120" height="60" as="geometry" />
        </mxCell>
        <mxCell id="iztxD9YRHtF3vGfMm_Q4-14" style="edgeStyle=orthogonalEdgeStyle;rounded=0;orthogonalLoop=1;jettySize=auto;html=1;" edge="1" parent="1" source="iztxD9YRHtF3vGfMm_Q4-6" target="iztxD9YRHtF3vGfMm_Q4-13">
          <mxGeometry relative="1" as="geometry" />
        </mxCell>
        <mxCell id="iztxD9YRHtF3vGfMm_Q4-6" value="resultsPage" style="rounded=0;whiteSpace=wrap;html=1;" vertex="1" parent="1">
          <mxGeometry x="474" y="350" width="120" height="60" as="geometry" />
        </mxCell>
        <mxCell id="iztxD9YRHtF3vGfMm_Q4-8" value="infoPage&lt;br&gt;" style="rounded=0;whiteSpace=wrap;html=1;" vertex="1" parent="1">
          <mxGeometry x="680" y="350" width="120" height="60" as="geometry" />
        </mxCell>
        <mxCell id="iztxD9YRHtF3vGfMm_Q4-32" style="edgeStyle=orthogonalEdgeStyle;rounded=0;orthogonalLoop=1;jettySize=auto;html=1;" edge="1" parent="1" source="iztxD9YRHtF3vGfMm_Q4-11" target="iztxD9YRHtF3vGfMm_Q4-31">
          <mxGeometry relative="1" as="geometry" />
        </mxCell>
        <mxCell id="iztxD9YRHtF3vGfMm_Q4-34" style="edgeStyle=orthogonalEdgeStyle;rounded=0;orthogonalLoop=1;jettySize=auto;html=1;" edge="1" parent="1" source="iztxD9YRHtF3vGfMm_Q4-11" target="iztxD9YRHtF3vGfMm_Q4-33">
          <mxGeometry relative="1" as="geometry" />
        </mxCell>
        <mxCell id="iztxD9YRHtF3vGfMm_Q4-11" value="Inputs (5x)" style="rounded=0;whiteSpace=wrap;html=1;" vertex="1" parent="1">
          <mxGeometry x="234" y="540" width="120" height="60" as="geometry" />
        </mxCell>
        <mxCell id="iztxD9YRHtF3vGfMm_Q4-13" value="Cards (3x)" style="rounded=0;whiteSpace=wrap;html=1;" vertex="1" parent="1">
          <mxGeometry x="474" y="540" width="120" height="60" as="geometry" />
        </mxCell>
        <mxCell id="iztxD9YRHtF3vGfMm_Q4-16" value="goToFormButton" style="rounded=0;whiteSpace=wrap;html=1;" vertex="1" parent="1">
          <mxGeometry x="40" y="540" width="120" height="60" as="geometry" />
        </mxCell>
        <mxCell id="iztxD9YRHtF3vGfMm_Q4-18" value="States for user inputs" style="text;html=1;align=center;verticalAlign=middle;resizable=0;points=[];autosize=1;strokeColor=none;fillColor=none;" vertex="1" parent="1">
          <mxGeometry x="220" y="310" width="140" height="30" as="geometry" />
        </mxCell>
        <mxCell id="iztxD9YRHtF3vGfMm_Q4-19" value="State for each step" style="text;html=1;align=center;verticalAlign=middle;resizable=0;points=[];autosize=1;strokeColor=none;fillColor=none;" vertex="1" parent="1">
          <mxGeometry x="230" y="280" width="120" height="30" as="geometry" />
        </mxCell>
        <mxCell id="iztxD9YRHtF3vGfMm_Q4-22" value="useEffect to get data and compare to user input" style="text;html=1;align=center;verticalAlign=middle;resizable=0;points=[];autosize=1;strokeColor=none;fillColor=none;" vertex="1" parent="1">
          <mxGeometry x="274" y="20" width="280" height="30" as="geometry" />
        </mxCell>
        <mxCell id="iztxD9YRHtF3vGfMm_Q4-25" value="States for user inputs" style="text;html=1;align=center;verticalAlign=middle;resizable=0;points=[];autosize=1;strokeColor=none;fillColor=none;" vertex="1" parent="1">
          <mxGeometry x="210" y="40" width="140" height="30" as="geometry" />
        </mxCell>
        <mxCell id="iztxD9YRHtF3vGfMm_Q4-26" value="States for user inputs" style="text;html=1;align=center;verticalAlign=middle;resizable=0;points=[];autosize=1;strokeColor=none;fillColor=none;" vertex="1" parent="1">
          <mxGeometry x="464" y="270" width="140" height="30" as="geometry" />
        </mxCell>
        <mxCell id="iztxD9YRHtF3vGfMm_Q4-27" value="Data from database" style="text;html=1;align=center;verticalAlign=middle;resizable=0;points=[];autosize=1;strokeColor=none;fillColor=none;" vertex="1" parent="1">
          <mxGeometry x="434" y="290" width="130" height="30" as="geometry" />
        </mxCell>
        <mxCell id="iztxD9YRHtF3vGfMm_Q4-28" value="Data from database" style="text;html=1;align=center;verticalAlign=middle;resizable=0;points=[];autosize=1;strokeColor=none;fillColor=none;" vertex="1" parent="1">
          <mxGeometry x="650" y="230" width="130" height="30" as="geometry" />
        </mxCell>
        <mxCell id="iztxD9YRHtF3vGfMm_Q4-29" value="Data from database" style="text;html=1;align=center;verticalAlign=middle;resizable=0;points=[];autosize=1;strokeColor=none;fillColor=none;" vertex="1" parent="1">
          <mxGeometry x="530" y="500" width="130" height="30" as="geometry" />
        </mxCell>
        <mxCell id="iztxD9YRHtF3vGfMm_Q4-30" value="State for each step" style="text;html=1;align=center;verticalAlign=middle;resizable=0;points=[];autosize=1;strokeColor=none;fillColor=none;" vertex="1" parent="1">
          <mxGeometry x="294" y="510" width="120" height="30" as="geometry" />
        </mxCell>
        <mxCell id="iztxD9YRHtF3vGfMm_Q4-31" value="Back" style="rounded=0;whiteSpace=wrap;html=1;" vertex="1" parent="1">
          <mxGeometry x="154" y="680" width="120" height="60" as="geometry" />
        </mxCell>
        <mxCell id="iztxD9YRHtF3vGfMm_Q4-33" value="Next/submit" style="rounded=0;whiteSpace=wrap;html=1;" vertex="1" parent="1">
          <mxGeometry x="314" y="680" width="120" height="60" as="geometry" />
        </mxCell>
      </root>
    </mxGraphModel>
  </diagram>
</mxfile>
